<svg width="52" height="61" viewBox="0 0 52 61" fill="none" xmlns="http://www.w3.org/2000/svg">
<path d="M1 16.0907L25.868 2L51 16.0907V45.3357L25.868 59.6923L1 44.5381V16.0907Z" fill="black"/>
<path d="M25.868 2L1 16.0907L25.868 2ZM25.868 2L51 16.0907L25.868 2ZM25.868 2L12.3757 23.0032L25.868 2ZM25.868 2L40.153 23.0032L25.868 2ZM1 16.0907V44.5381V16.0907ZM1 16.0907L12.3757 23.0032L1 16.0907ZM1 44.5381L25.868 47.7285L1 44.5381ZM1 44.5381L12.3757 23.0032L1 44.5381ZM1 44.5381L25.868 59.6923L1 44.5381ZM25.868 47.7285L51 45.3357L25.868 47.7285ZM25.868 47.7285V59.6923V47.7285ZM25.868 47.7285L40.153 23.0032L25.868 47.7285ZM25.868 47.7285L12.3757 23.0032L25.868 47.7285ZM51 45.3357V16.0907V45.3357ZM51 45.3357L25.868 59.6923L51 45.3357ZM51 45.3357L40.153 23.0032L51 45.3357ZM51 16.0907L40.153 23.0032L51 16.0907ZM12.3757 23.0032H40.153H12.3757Z" fill="black"/>
<path d="M25.868 2L1 16.0907M25.868 2L51 16.0907M25.868 2L12.3757 23.0032M25.868 2L40.153 23.0032M1 16.0907V44.5381M1 16.0907L12.3757 23.0032M51 16.0907V45.3357M51 16.0907L40.153 23.0032M12.3757 23.0032L1 44.5381M12.3757 23.0032L25.868 47.7285M12.3757 23.0032H40.153M40.153 23.0032L25.868 47.7285M40.153 23.0032L51 45.3357M1 44.5381L25.868 47.7285M1 44.5381L25.868 59.6923M25.868 47.7285L51 45.3357M25.868 47.7285V59.6923M25.868 59.6923L51 45.3357" stroke="white" stroke-width="2"/>
</svg>
