<svg width="145" height="72" viewBox="0 0 145 72" fill="none" xmlns="http://www.w3.org/2000/svg">
<g clip-path="url(#clip0_82_542)">
<g filter="url(#filter0_d_82_542)">
<path d="M84 21.0907L108.868 7L134 21.0907V50.3357L108.868 64.6923L84 49.5381V21.0907Z" fill="black"/>
<path d="M108.868 7L84 21.0907M108.868 7L134 21.0907M108.868 7L95.3757 28.0032M108.868 7L123.153 28.0032M84 21.0907V49.5381M84 21.0907L95.3757 28.0032M134 21.0907V50.3357M134 21.0907L123.153 28.0032M95.3757 28.0032L84 49.5381M95.3757 28.0032L108.868 52.7285M95.3757 28.0032H123.153M123.153 28.0032L108.868 52.7285M123.153 28.0032L134 50.3357M84 49.5381L108.868 52.7285M84 49.5381L108.868 64.6923M108.868 52.7285L134 50.3357M108.868 52.7285V64.6923M108.868 64.6923L134 50.3357" stroke="#8A7575"/>
</g>
<path d="M74.73 27.6922C76.7946 19.3654 81.8329 12.0812 88.8958 7.21167C95.9586 2.34216 104.558 0.2236 113.075 1.25511C121.592 2.28662 129.437 6.39699 135.133 12.8118C140.829 19.2267 143.983 27.5032 144 36.082C144.017 44.6608 140.896 52.9497 135.226 59.3871C129.555 65.8245 121.726 69.966 113.213 71.0312C104.701 72.0965 96.0929 70.0121 89.0107 65.1706C81.9286 60.3292 76.8614 53.0649 74.7638 44.7465" stroke="white" stroke-linecap="round"/>
<path d="M6.28693 36.4317C6.94271 36.5742 7.44642 36.8593 7.79807 37.287C8.15923 37.7052 8.3398 38.2469 8.3398 38.9122C8.3398 39.7676 8.02142 40.4281 7.38465 40.8938C6.75738 41.35 5.82598 41.5781 4.59046 41.5781H0V31.5989H4.30533C5.41731 31.5989 6.27743 31.8222 6.88568 32.2689C7.50345 32.7156 7.81233 33.3476 7.81233 34.1649C7.81233 34.7162 7.67452 35.1866 7.3989 35.5763C7.13279 35.9565 6.76213 36.2416 6.28693 36.4317ZM1.05495 32.4685V36.0895H4.23405C5.0419 36.0895 5.66441 35.9375 6.1016 35.6333C6.53879 35.3197 6.75738 34.8683 6.75738 34.279C6.75738 33.6897 6.53879 33.2431 6.1016 32.9389C5.66441 32.6253 5.0419 32.4685 4.23405 32.4685H1.05495ZM4.5762 40.7085C5.46958 40.7085 6.14437 40.5564 6.60056 40.2523C7.05676 39.9482 7.28485 39.473 7.28485 38.8267C7.28485 37.5817 6.38197 36.9591 4.5762 36.9591H1.05495V40.7085H4.5762Z" fill="white"/>
<path d="M13.599 41.6492C12.8767 41.6492 12.2256 41.4876 11.6459 41.1645C11.0661 40.8318 10.6099 40.3756 10.2773 39.7959C9.94464 39.2162 9.77832 38.5604 9.77832 37.8286C9.77832 37.0968 9.94464 36.441 10.2773 35.8612C10.6099 35.2815 11.0661 34.83 11.6459 34.5069C12.2256 34.1838 12.8767 34.0222 13.599 34.0222C14.3213 34.0222 14.9723 34.1838 15.552 34.5069C16.1318 34.83 16.5832 35.2815 16.9064 35.8612C17.239 36.441 17.4053 37.0968 17.4053 37.8286C17.4053 38.5604 17.239 39.2162 16.9064 39.7959C16.5832 40.3756 16.1318 40.8318 15.552 41.1645C14.9723 41.4876 14.3213 41.6492 13.599 41.6492ZM13.599 40.7511C14.1312 40.7511 14.6064 40.6323 15.0246 40.3947C15.4522 40.1476 15.7849 39.8007 16.0225 39.354C16.2601 38.9073 16.3789 38.3988 16.3789 37.8286C16.3789 37.2583 16.2601 36.7499 16.0225 36.3032C15.7849 35.8565 15.4522 35.5143 15.0246 35.2767C14.6064 35.0296 14.1312 34.9061 13.599 34.9061C13.0667 34.9061 12.5868 35.0296 12.1591 35.2767C11.7409 35.5143 11.4083 35.8565 11.1612 36.3032C10.9236 36.7499 10.8048 37.2583 10.8048 37.8286C10.8048 38.3988 10.9236 38.9073 11.1612 39.354C11.4083 39.8007 11.7409 40.1476 12.1591 40.3947C12.5868 40.6323 13.0667 40.7511 13.599 40.7511Z" fill="white"/>
<path d="M26.3148 34.0792V41.5779H25.3454V40.0953C25.0413 40.599 24.6373 40.9839 24.1336 41.25C23.6394 41.5161 23.0787 41.6492 22.4514 41.6492C21.7481 41.6492 21.1113 41.4876 20.5411 41.1645C19.9709 40.8413 19.5242 40.3899 19.201 39.8102C18.8779 39.2304 18.7163 38.5699 18.7163 37.8286C18.7163 37.0872 18.8779 36.4267 19.201 35.847C19.5242 35.2672 19.9709 34.8205 20.5411 34.5069C21.1113 34.1838 21.7481 34.0222 22.4514 34.0222C23.0597 34.0222 23.6062 34.1505 24.0909 34.4071C24.5851 34.6542 24.989 35.0201 25.3026 35.5048V34.0792H26.3148ZM22.5369 40.7511C23.0597 40.7511 23.5301 40.6323 23.9483 40.3947C24.376 40.1476 24.7086 39.8007 24.9462 39.354C25.1933 38.9073 25.3169 38.3988 25.3169 37.8286C25.3169 37.2583 25.1933 36.7499 24.9462 36.3032C24.7086 35.8565 24.376 35.5143 23.9483 35.2767C23.5301 35.0296 23.0597 34.9061 22.5369 34.9061C22.0047 34.9061 21.5248 35.0296 21.0971 35.2767C20.6789 35.5143 20.3463 35.8565 20.0992 36.3032C19.8616 36.7499 19.7428 37.2583 19.7428 37.8286C19.7428 38.3988 19.8616 38.9073 20.0992 39.354C20.3463 39.8007 20.6789 40.1476 21.0971 40.3947C21.5248 40.6323 22.0047 40.7511 22.5369 40.7511Z" fill="white"/>
<path d="M30.1029 35.5476C30.3405 35.0439 30.6922 34.6637 31.1579 34.4071C31.6331 34.1505 32.2176 34.0222 32.9114 34.0222V35.0059L32.669 34.9916C31.8802 34.9916 31.2624 35.234 30.8157 35.7187C30.3691 36.2034 30.1457 36.8829 30.1457 37.7573V41.5779H29.1335V34.0792H30.1029V35.5476Z" fill="white"/>
<path d="M41.5174 31V41.578H40.548V40.0954C40.2438 40.5991 39.8399 40.984 39.3362 41.2501C38.842 41.5162 38.2812 41.6493 37.654 41.6493C36.9507 41.6493 36.3139 41.4877 35.7437 41.1646C35.1734 40.8414 34.7267 40.39 34.4036 39.8103C34.0805 39.2305 33.9189 38.57 33.9189 37.8287C33.9189 37.0873 34.0805 36.4268 34.4036 35.8471C34.7267 35.2673 35.1734 34.8206 35.7437 34.507C36.3139 34.1839 36.9507 34.0223 37.654 34.0223C38.2622 34.0223 38.8087 34.1506 39.2934 34.4072C39.7876 34.6543 40.1916 35.0202 40.5052 35.5049V31H41.5174ZM37.7395 40.7512C38.2622 40.7512 38.7327 40.6324 39.1509 40.3948C39.5786 40.1477 39.9112 39.8008 40.1488 39.3541C40.3959 38.9074 40.5195 38.3989 40.5195 37.8287C40.5195 37.2584 40.3959 36.75 40.1488 36.3033C39.9112 35.8566 39.5786 35.5144 39.1509 35.2768C38.7327 35.0297 38.2622 34.9062 37.7395 34.9062C37.2073 34.9062 36.7273 35.0297 36.2997 35.2768C35.8815 35.5144 35.5488 35.8566 35.3017 36.3033C35.0641 36.75 34.9453 37.2584 34.9453 37.8287C34.9453 38.3989 35.0641 38.9074 35.3017 39.3541C35.5488 39.8008 35.8815 40.1477 36.2997 40.3948C36.7273 40.6324 37.2073 40.7512 37.7395 40.7512Z" fill="white"/>
<path d="M55.3097 36.5884H56.3218V41.578H55.3952V40.7369C55.015 41.041 54.5683 41.2739 54.0551 41.4355C53.5514 41.5875 53.0097 41.6635 52.4299 41.6635C51.5366 41.6635 50.7049 41.464 49.9351 41.0648C49.1748 40.6656 48.5618 40.0859 48.0961 39.3256C47.6304 38.5652 47.3975 37.6623 47.3975 36.6169C47.3975 35.6475 47.6256 34.7779 48.0818 34.008C48.538 33.2287 49.1653 32.6204 49.9636 32.1833C50.762 31.7366 51.6649 31.5132 52.6723 31.5132C53.4326 31.5132 54.1312 31.6368 54.7679 31.8839C55.4047 32.1215 55.9417 32.4779 56.3789 32.9531L55.7231 33.6231C54.9342 32.8438 53.9316 32.4541 52.7151 32.4541C51.9072 32.4541 51.1754 32.6347 50.5196 32.9959C49.8733 33.3475 49.3649 33.8417 48.9942 34.4785C48.6236 35.1153 48.4382 35.8281 48.4382 36.6169C48.4382 37.4628 48.6236 38.1993 48.9942 38.8266C49.3744 39.4444 49.8733 39.9196 50.4911 40.2522C51.1184 40.5753 51.7884 40.7369 52.5012 40.7369C53.0239 40.7369 53.5276 40.6514 54.0124 40.4803C54.5066 40.2997 54.939 40.0289 55.3097 39.6677V36.5884Z" fill="white"/>
<path d="M65.9366 34.0792V41.5779H64.9672V40.0953C64.663 40.599 64.2591 40.9839 63.7554 41.25C63.2612 41.5161 62.7004 41.6492 62.0732 41.6492C61.3699 41.6492 60.7331 41.4876 60.1629 41.1645C59.5926 40.8413 59.1459 40.3899 58.8228 39.8102C58.4997 39.2304 58.3381 38.5699 58.3381 37.8286C58.3381 37.0872 58.4997 36.4267 58.8228 35.847C59.1459 35.2672 59.5926 34.8205 60.1629 34.5069C60.7331 34.1838 61.3699 34.0222 62.0732 34.0222C62.6814 34.0222 63.2279 34.1505 63.7126 34.4071C64.2068 34.6542 64.6108 35.0201 64.9244 35.5048V34.0792H65.9366ZM62.1587 40.7511C62.6814 40.7511 63.1519 40.6323 63.5701 40.3947C63.9977 40.1476 64.3304 39.8007 64.568 39.354C64.8151 38.9073 64.9386 38.3988 64.9386 37.8286C64.9386 37.2583 64.8151 36.7499 64.568 36.3032C64.3304 35.8565 63.9977 35.5143 63.5701 35.2767C63.1519 35.0296 62.6814 34.9061 62.1587 34.9061C61.6265 34.9061 61.1465 35.0296 60.7188 35.2767C60.3007 35.5143 59.968 35.8565 59.7209 36.3032C59.4833 36.7499 59.3645 37.2583 59.3645 37.8286C59.3645 38.3988 59.4833 38.9073 59.7209 39.354C59.968 39.8007 60.3007 40.1476 60.7188 40.3947C61.1465 40.6323 61.6265 40.7511 62.1587 40.7511Z" fill="white"/>
<path d="M78.1076 34.0222C79.0485 34.0222 79.785 34.2931 80.3173 34.8348C80.859 35.3765 81.1299 36.1749 81.1299 37.2298V41.5779H80.1177V37.3296C80.1177 36.5503 79.9276 35.9563 79.5474 35.5476C79.1768 35.1389 78.6493 34.9346 77.965 34.9346C77.1857 34.9346 76.5727 35.1769 76.126 35.6616C75.6793 36.1368 75.4559 36.7974 75.4559 37.6432V41.5779H74.4438V37.3296C74.4438 36.5503 74.2537 35.9563 73.8735 35.5476C73.5029 35.1389 72.9706 34.9346 72.2768 34.9346C71.507 34.9346 70.894 35.1769 70.4378 35.6616C69.9911 36.1368 69.7678 36.7974 69.7678 37.6432V41.5779H68.7556V34.0792H69.725V35.4478C69.9911 34.9916 70.3618 34.64 70.837 34.3928C71.3122 34.1457 71.8587 34.0222 72.4764 34.0222C73.1037 34.0222 73.6454 34.1552 74.1016 34.4214C74.5673 34.6875 74.9142 35.0819 75.1423 35.6046C75.4179 35.1104 75.8123 34.7255 76.3256 34.4499C76.8483 34.1648 77.4423 34.0222 78.1076 34.0222Z" fill="white"/>
<path d="M87.1102 40.7511C87.5759 40.7511 88.0036 40.6703 88.3932 40.5087C88.7924 40.3376 89.1298 40.0905 89.4054 39.7674L89.9756 40.4232C89.643 40.8223 89.2296 41.1265 88.7354 41.3356C88.2412 41.5446 87.6947 41.6492 87.0959 41.6492C86.3261 41.6492 85.6418 41.4876 85.043 41.1645C84.4443 40.8318 83.9786 40.3756 83.646 39.7959C83.3133 39.2162 83.147 38.5604 83.147 37.8286C83.147 37.0968 83.3038 36.441 83.6175 35.8612C83.9406 35.2815 84.3825 34.83 84.9433 34.5069C85.504 34.1838 86.1408 34.0222 86.8536 34.0222C87.5189 34.0222 88.1176 34.1743 88.6498 34.4784C89.1916 34.7825 89.6193 35.2054 89.9329 35.7472C90.256 36.2889 90.4271 36.9067 90.4461 37.6005L84.2875 38.798C84.4776 39.4062 84.8197 39.8862 85.3139 40.2378C85.8176 40.58 86.4164 40.7511 87.1102 40.7511ZM86.8536 34.8918C86.3308 34.8918 85.8604 35.0154 85.4422 35.2625C85.0335 35.5001 84.7104 35.8375 84.4728 36.2747C84.2447 36.7023 84.1307 37.1965 84.1307 37.7573C84.1307 37.8998 84.1354 38.0044 84.1449 38.0709L89.4339 37.0445C89.3199 36.4172 89.03 35.904 88.5643 35.5048C88.0986 35.0961 87.5284 34.8918 86.8536 34.8918Z" fill="white"/>
<path d="M94.5164 41.6492C93.9082 41.6492 93.3237 41.5637 92.7629 41.3926C92.2117 41.212 91.7793 40.9887 91.4656 40.7225L91.9218 39.9242C92.2355 40.1713 92.6299 40.3757 93.1051 40.5372C93.5803 40.6893 94.0745 40.7653 94.5877 40.7653C95.272 40.7653 95.7757 40.6608 96.0989 40.4517C96.4315 40.2331 96.5978 39.929 96.5978 39.5393C96.5978 39.2637 96.5075 39.0498 96.327 38.8978C96.1464 38.7362 95.9183 38.6174 95.6427 38.5414C95.367 38.4558 95.0011 38.375 94.5449 38.299C93.9367 38.185 93.4472 38.0709 93.0766 37.9569C92.7059 37.8333 92.3875 37.629 92.1214 37.3439C91.8648 37.0587 91.7365 36.6643 91.7365 36.1606C91.7365 35.5333 91.9979 35.0201 92.5206 34.6209C93.0433 34.2218 93.7704 34.0222 94.7018 34.0222C95.1865 34.0222 95.6712 34.0887 96.1559 34.2218C96.6406 34.3453 97.0398 34.5116 97.3534 34.7207L96.9115 35.5333C96.2937 35.1057 95.5571 34.8918 94.7018 34.8918C94.0555 34.8918 93.566 35.0059 93.2334 35.234C92.9103 35.4621 92.7487 35.7614 92.7487 36.1321C92.7487 36.4172 92.839 36.6453 93.0195 36.8164C93.2096 36.9875 93.4425 37.1158 93.7181 37.2013C93.9937 37.2773 94.3739 37.3581 94.8586 37.4436C95.4573 37.5577 95.9373 37.6717 96.2984 37.7858C96.6596 37.8998 96.9685 38.0947 97.2251 38.3703C97.4817 38.6459 97.61 39.0261 97.61 39.5108C97.61 40.1666 97.3344 40.6893 96.7831 41.0789C96.2414 41.4591 95.4858 41.6492 94.5164 41.6492Z" fill="white"/>
<path d="M111.766 31.5989V41.5781H110.725V36.9734H104.481V41.5781H103.426V31.5989H104.481V36.0468H110.725V31.5989H111.766Z" fill="white"/>
<path d="M121.567 34.0793V41.578H120.597V40.2094C120.331 40.6656 119.965 41.022 119.5 41.2786C119.034 41.5257 118.502 41.6493 117.903 41.6493C116.924 41.6493 116.149 41.3784 115.579 40.8367C115.018 40.2855 114.738 39.4824 114.738 38.4274V34.0793H115.75V38.3276C115.75 39.1165 115.945 39.7152 116.335 40.1239C116.724 40.5326 117.28 40.7369 118.003 40.7369C118.791 40.7369 119.414 40.4993 119.87 40.0241C120.326 39.5394 120.554 38.8694 120.554 38.014V34.0793H121.567Z" fill="white"/>
<path d="M128.265 34.0223C128.968 34.0223 129.605 34.1839 130.175 34.507C130.745 34.8206 131.192 35.2673 131.515 35.8471C131.838 36.4268 132 37.0873 132 37.8287C132 38.57 131.838 39.2305 131.515 39.8103C131.192 40.39 130.745 40.8414 130.175 41.1646C129.605 41.4877 128.968 41.6493 128.265 41.6493C127.638 41.6493 127.072 41.5162 126.568 41.2501C126.074 40.984 125.675 40.5991 125.371 40.0954V41.578H124.402V31H125.414V35.5049C125.727 35.0202 126.126 34.6543 126.611 34.4072C127.105 34.1506 127.657 34.0223 128.265 34.0223ZM128.194 40.7512C128.716 40.7512 129.192 40.6324 129.619 40.3948C130.047 40.1477 130.38 39.8008 130.617 39.3541C130.864 38.9074 130.988 38.3989 130.988 37.8287C130.988 37.2584 130.864 36.75 130.617 36.3033C130.38 35.8566 130.047 35.5144 129.619 35.2768C129.192 35.0297 128.716 34.9062 128.194 34.9062C127.661 34.9062 127.181 35.0297 126.754 35.2768C126.336 35.5144 126.003 35.8566 125.756 36.3033C125.518 36.75 125.399 37.2584 125.399 37.8287C125.399 38.3989 125.518 38.9074 125.756 39.3541C126.003 39.8008 126.336 40.1477 126.754 40.3948C127.181 40.6324 127.661 40.7512 128.194 40.7512Z" fill="white"/>
</g>
<defs>
<filter id="filter0_d_82_542" x="83.5" y="6.42603" width="56.1" height="61.9467" filterUnits="userSpaceOnUse" color-interpolation-filters="sRGB">
<feFlood flood-opacity="0" result="BackgroundImageFix"/>
<feColorMatrix in="SourceAlpha" type="matrix" values="0 0 0 0 0 0 0 0 0 0 0 0 0 0 0 0 0 0 127 0" result="hardAlpha"/>
<feOffset dx="5" dy="3"/>
<feGaussianBlur stdDeviation="0.05"/>
<feComposite in2="hardAlpha" operator="out"/>
<feColorMatrix type="matrix" values="0 0 0 0 0 0 0 0 0 0 0 0 0 0 0 0 0 0 0.75 0"/>
<feBlend mode="normal" in2="BackgroundImageFix" result="effect1_dropShadow_82_542"/>
<feBlend mode="normal" in="SourceGraphic" in2="effect1_dropShadow_82_542" result="shape"/>
</filter>
<clipPath id="clip0_82_542">
<rect width="145" height="72" fill="white"/>
</clipPath>
</defs>
</svg>
